<?xml version="1.0" encoding="UTF-8" standalone="no"?>
<!-- Created with Inkscape (http://www.inkscape.org/) -->

<svg
   xmlns:dc="http://purl.org/dc/elements/1.1/"
   xmlns:cc="http://creativecommons.org/ns#"
   xmlns:rdf="http://www.w3.org/1999/02/22-rdf-syntax-ns#"
   xmlns:svg="http://www.w3.org/2000/svg"
   xmlns="http://www.w3.org/2000/svg"
   xmlns:xlink="http://www.w3.org/1999/xlink"
   xmlns:sodipodi="http://sodipodi.sourceforge.net/DTD/sodipodi-0.dtd"
   xmlns:inkscape="http://www.inkscape.org/namespaces/inkscape"
   width="744.09448819"
   height="1052.3622047"
   id="svg2"
   version="1.1"
   inkscape:version="0.48.4 r9939"
   sodipodi:docname="1.svg">
  <defs
     id="defs4">
    <linearGradient
       id="linearGradient4329">
      <stop
         style="stop-color:#ffffff;stop-opacity:1;"
         offset="0"
         id="stop4331" />
      <stop
         style="stop-color:#e2e2e2;stop-opacity:1;"
         offset="1"
         id="stop4333" />
    </linearGradient>
    <linearGradient
       id="linearGradient4183">
      <stop
         id="stop4185"
         offset="0"
         style="stop-color:#e7e7e7;stop-opacity:1;" />
      <stop
         id="stop4187"
         offset="1"
         style="stop-color:#dbdbdb;stop-opacity:1;" />
    </linearGradient>
    <linearGradient
       id="linearGradient4155">
      <stop
         style="stop-color:#e8e2e2;stop-opacity:1;"
         offset="0"
         id="stop4157" />
      <stop
         style="stop-color:#d2d2d2;stop-opacity:1;"
         offset="1"
         id="stop4159" />
    </linearGradient>
    <linearGradient
       inkscape:collect="always"
       xlink:href="#linearGradient4155"
       id="linearGradient4161"
       x1="178.9778"
       y1="153.83777"
       x2="258.47781"
       y2="153.83777"
       gradientUnits="userSpaceOnUse" />
    <linearGradient
       inkscape:collect="always"
       xlink:href="#linearGradient4183"
       id="linearGradient4327"
       x1="44.48082"
       y1="161.21628"
       x2="177.209"
       y2="161.21628"
       gradientUnits="userSpaceOnUse" />
    <radialGradient
       inkscape:collect="always"
       xlink:href="#linearGradient4329"
       id="radialGradient4337"
       cx="142.69447"
       cy="104.03996"
       fx="142.69447"
       fy="104.03996"
       r="59.416569"
       gradientTransform="matrix(1,0,0,0.5790988,0,43.790542)"
       gradientUnits="userSpaceOnUse" />
  </defs>
  <sodipodi:namedview
     id="base"
     pagecolor="#ffffff"
     bordercolor="#666666"
     borderopacity="1.0"
     inkscape:pageopacity="0.0"
     inkscape:pageshadow="2"
     inkscape:zoom="2"
     inkscape:cx="89.444632"
     inkscape:cy="963.12304"
     inkscape:document-units="px"
     inkscape:current-layer="layer1"
     showgrid="false"
     inkscape:window-width="1920"
     inkscape:window-height="1025"
     inkscape:window-x="0"
     inkscape:window-y="23"
     inkscape:window-maximized="1" />
  <metadata
     id="metadata7">
    <rdf:RDF>
      <cc:Work
         rdf:about="">
        <dc:format>image/svg+xml</dc:format>
        <dc:type
           rdf:resource="http://purl.org/dc/dcmitype/StillImage" />
        <dc:title></dc:title>
      </cc:Work>
    </rdf:RDF>
  </metadata>
  <g
     inkscape:label="Layer 1"
     inkscape:groupmode="layer"
     id="layer1">
    <path
       style="fill:none;stroke:#000000;stroke-width:0.99840397px;stroke-linecap:butt;stroke-linejoin:miter;stroke-opacity:1"
       d="m 78.497719,125.55316 -34.24913,-13.88254 -0.378807,30.45769 133.631018,68.8061 0.23087,-45.05945 -41.98482,-16.97051"
       id="path3060"
       inkscape:connector-curvature="0"
       sodipodi:nodetypes="cccccc" />
    <path
       style="fill:none;stroke:#000000;stroke-width:1px;stroke-linecap:butt;stroke-linejoin:miter;stroke-opacity:1"
       d="m 178.36222,210.5548 80.82877,-85.8758 0.0947,-27.713575 -80.90181,68.589375 z"
       id="path3062"
       inkscape:connector-curvature="0"
       sodipodi:nodetypes="ccccc" />
    <path
       style="fill:none;stroke:#000000;stroke-width:1px;stroke-linecap:butt;stroke-linejoin:miter;stroke-opacity:1"
       d="M 79.308907,124.99879 44.872128,110.83445 128.21429,51.647895 258.92857,96.290752 177.85714,165.21932 135.90178,148.10325"
       id="path3064"
       inkscape:connector-curvature="0"
       sodipodi:nodetypes="cccccc" />
    <path
       style="fill:none;stroke:#000000;stroke-width:1px;stroke-linecap:butt;stroke-linejoin:miter;stroke-opacity:1"
       d="m 78.347738,125.56753 0,15.9099 57.073622,28.78935 0,-21.71828 34.34518,-28.03173 -56.56854,-19.1929 z"
       id="path3066"
       inkscape:connector-curvature="0"
       sodipodi:nodetypes="ccccccc" />
    <path
       style="fill:#00aa00;stroke:#009506;stroke-width:1px;stroke-linecap:butt;stroke-linejoin:miter;stroke-opacity:1;fill-opacity:1"
       d="m 49.497475,134.30535 0,-11.49048 19.798989,7.77817 0,13.61181 z"
       id="path3861"
       inkscape:connector-curvature="0"
       sodipodi:nodetypes="ccccc" />
    <path
       style="fill:none;stroke:#000000;stroke-width:0.97908175px;stroke-linecap:butt;stroke-linejoin:miter;stroke-opacity:1"
       d="M 61.154277,117.57748 C 96.628183,98.615556 112.81875,61.185082 177.63633,70.326958"
       id="path3863"
       inkscape:connector-curvature="0"
       sodipodi:nodetypes="cc" />
    <path
       style="fill:none;stroke:#000000;stroke-width:0.98118138px;stroke-linecap:butt;stroke-linejoin:miter;stroke-opacity:1"
       d="m 157.74059,158.3716 c 21.83129,-23.30306 67.89286,-57.86859 31.6431,-83.891015"
       id="path3909"
       inkscape:connector-curvature="0"
       sodipodi:nodetypes="cc" />
    <path
       style="fill:none;stroke:#000000;stroke-width:1px;stroke-linecap:butt;stroke-linejoin:miter;stroke-opacity:1"
       d="m 113.25,101.61219 0,10.25 47,16"
       id="path3911"
       inkscape:connector-curvature="0" />
    <path
       style="fill:none;stroke:#000000;stroke-width:1px;stroke-linecap:butt;stroke-linejoin:miter;stroke-opacity:1"
       d="m 113.25,112.11219 -34.75,29.5"
       id="path3913"
       inkscape:connector-curvature="0" />
    <path
       style="fill:#333333;fill-opacity:1;stroke:#000000;stroke-width:0.12500000000000000;stroke-opacity:1"
       d="m 137.07775,119.37716 c -12.7875,-4.3598 -23.26407,-7.92831 -23.28125,-7.93002 -0.0937,-0.009 -0.0139,-9.25312 0.08,-9.25312 0.14535,0 54.26292,18.36209 54.48675,18.48735 0.11932,0.0668 -1.04156,1.08611 -3.83419,3.36671 -2.20294,1.79902 -4.04942,3.26758 -4.1033,3.26346 -0.0539,-0.004 -10.56046,-3.57458 -23.34796,-7.93438 z"
       id="path3927"
       inkscape:connector-curvature="0" />
    <path
       style="fill:#cccccc;stroke:#d9d9d9;stroke-width:1px;stroke-linecap:butt;stroke-linejoin:miter;stroke-opacity:1"
       d="M 89.625,142.86219 119,117.61219"
       id="path3929"
       inkscape:connector-curvature="0" />
    <path
       style="fill:#cccccc;stroke:#d9d9d9;stroke-width:1px;stroke-linecap:butt;stroke-linejoin:miter;stroke-opacity:1"
       d="m 99.4375,147.73719 29.375,-25.25"
       id="path3929-1"
       inkscape:connector-curvature="0" />
    <path
       style="fill:#cccccc;stroke:#d9d9d9;stroke-width:1px;stroke-linecap:butt;stroke-linejoin:miter;stroke-opacity:1"
       d="m 110.3125,152.73718 29.375,-25.25"
       id="path3929-1-6"
       inkscape:connector-curvature="0" />
    <path
       style="fill:#cccccc;stroke:#d9d9d9;stroke-width:1px;stroke-linecap:butt;stroke-linejoin:miter;stroke-opacity:1"
       d="m 120.5625,157.98719 29.375,-25.25"
       id="path3929-1-6-8"
       inkscape:connector-curvature="0" />
    <path
       style="fill:#ececec;fill-opacity:1;stroke:#d9d9d9;stroke-width:0.17677669;stroke-opacity:1"
       d="m 178.9211,187.49429 -0.002,-21.59488 39.37181,-33.38268 c 21.65449,-18.36047 39.5929,-33.568728 39.86314,-33.796132 l 0.49134,-0.413462 -0.007,13.052994 -0.007,13.053 -38.46076,40.83541 c -21.15341,22.45948 -39.08807,41.51159 -39.85479,42.33802 l -1.39403,1.5026 -0.002,-21.59487 0,0 z"
       id="path3993"
       inkscape:connector-curvature="0" />
    <path
       style="fill:url(#linearGradient4327);fill-opacity:1.0;stroke:none;stroke-width:0.17716535000000000;stroke-opacity:1;stroke-miterlimit:4;stroke-dasharray:none"
       d="m 110.5953,175.81456 -66.114482,-34.05278 0.05758,-5.22718 c 0.03167,-2.87495 0.111218,-9.44613 0.176777,-14.60262 l 0.119197,-9.37543 16.440233,6.6642 16.440232,6.66419 0.04964,8.01454 0.04964,8.01454 29.030133,14.6222 29.03013,14.6222 0.0884,-10.74136 0.0884,-10.74136 10.6066,4.28269 c 5.83363,2.35547 10.7657,4.38622 10.96015,4.51276 0.19446,0.12654 0.47288,0.24026 0.61872,0.25271 0.14584,0.0124 4.47428,1.72405 9.61876,3.80355 l 9.35359,3.78093 -0.11701,12.183 c -0.0643,6.70066 -0.11701,16.50533 -0.11701,21.78816 0,5.28284 -0.0597,9.60126 -0.13258,9.5965 -0.0729,-0.005 -29.8841,-15.33241 -66.24707,-34.06144 z m -40.789303,-38.24613 -0.04611,-7.43918 -10.076271,-3.96182 c -5.54195,-2.179 -10.215484,-4.00745 -10.385631,-4.06322 -0.290784,-0.0953 -0.309359,0.28143 -0.309359,6.27418 l 0,6.37557 10.208854,5.11714 c 5.614869,2.81443 10.309153,5.1215 10.431743,5.12683 0.176656,0.008 0.213325,-1.53343 0.176776,-7.4295 z"
       id="path3995"
       inkscape:connector-curvature="0" />
    <path
       style="fill:url(#linearGradient4161);fill-opacity:1.0;stroke:#d9d9d9;stroke-width:0.25157479999999999;stroke-opacity:1;stroke-miterlimit:4;stroke-dasharray:none"
       d="m 179.1028,187.30648 0,-21.27021 1.4375,-1.24369 c 3.24031,-2.80346 77.28307,-65.533593 77.53708,-65.690581 0.19918,-0.123097 0.27542,3.357191 0.27542,12.572751 l 0,12.74296 -38.90134,41.33429 c -21.39574,22.73386 -39.22699,41.66963 -39.625,42.07948 l -0.72366,0.7452 0,-21.2702 z"
       id="path3997"
       inkscape:connector-curvature="0" />
    <path
       style="fill:#f9f9f9;fill-opacity:1;stroke:#d9d9d9;stroke-width:0.17677668999999999;stroke-opacity:1"
       d="m 79.006951,133.09446 0,-7.2515 16.219261,-11.27035 C 104.14681,108.37392 111.70401,103.10815 112.02,102.87089 l 0.57452,-0.43138 -0.0126,4.74975 -0.0126,4.74976 -16.160969,13.7002 c -8.888534,7.5351 -16.440069,13.92667 -16.78119,14.20347 l -0.62022,0.50328 0,-7.25151 z"
       id="path3999"
       inkscape:connector-curvature="0" />
    <path
       style="fill:url(#radialGradient4337);fill-opacity:1;stroke:none"
       d="m 167.02516,134.91491 c -7.34426,-2.77125 -9.25914,-3.58333 -9.04836,-3.8373 0.14704,-0.17718 3.13048,-2.65534 6.62986,-5.50702 3.49937,-2.85168 6.31698,-5.23039 6.26134,-5.28602 -0.1497,-0.14971 -57.41614,-19.5688 -57.70791,-19.5688 -0.13704,0 -3.15192,2.02244 -6.69974,4.49432 l -6.45058,4.49431 -8.334448,-3.14493 c -4.583946,-1.72972 -8.362609,-3.17094 -8.397028,-3.20273 -0.08304,-0.0767 13.375669,-10.777835 16.56258,-13.16907 16.455776,-12.347264 30.334396,-18.150045 48.124996,-20.12152 4.70304,-0.521169 15.43348,-0.586105 20.625,-0.124814 7.29792,0.648454 8.16939,0.830518 14.53653,3.036905 5.54038,1.919892 6.08763,2.164256 7.71347,3.444262 2.35231,1.851946 5.48854,5.063196 6.96324,7.129798 1.53511,2.151262 3.22045,5.752639 3.82026,8.163467 0.72867,2.928705 0.62797,7.86799 -0.22736,11.152072 -2.09435,8.04144 -7.18895,16.32988 -16.50243,26.84793 -2.86122,3.23128 -8.18377,8.75943 -8.40738,8.73215 -0.0805,-0.01 -4.3384,-1.59967 -9.46204,-3.53301 l 0,0 z m 0.44071,-30.56177 c 1.5263,-0.55336 2.79028,-1.46484 3.35346,-2.41823 0.64873,-1.0982 0.61648,-3.057947 -0.0725,-4.408537 -1.19468,-2.34178 -4.59535,-4.935166 -8.7926,-6.705344 -1.60747,-0.677941 -2.11805,-0.801774 -2.27645,-0.552111 -0.39437,0.621563 -0.20137,0.882826 0.97563,1.320726 4.86488,1.809958 8.97136,5.178424 9.45484,7.755614 0.22443,1.196322 -0.48401,2.506652 -1.75933,3.254032 -1.30567,0.76518 -1.38301,0.7645 -1.38301,-0.0122 0,-0.43575 -0.24933,-0.78853 -0.8125,-1.14959 -0.69853,-0.44785 -0.72483,-0.49769 -0.1875,-0.35532 1.10681,0.29326 1.35417,0.26666 1.44165,-0.15499 0.10295,-0.49623 -1.40379,-1.074739 -2.33537,-0.89666 -0.33345,0.0637 -0.60628,0.0219 -0.60628,-0.09301 0,-0.323038 -1.402,-0.971753 -2.10016,-0.971753 -0.34374,0 -0.73966,0.196875 -0.87981,0.4375 -0.21787,0.37406 -0.25592,0.37968 -0.26242,0.03875 -0.004,-0.219315 -0.20448,-0.571483 -0.44511,-0.782593 -0.50069,-0.439282 -3.05235,-1.229437 -3.35874,-1.040077 -0.11206,0.06926 -0.20376,0.0199 -0.20376,-0.10968 0,-0.129585 -0.28125,-0.289373 -0.625,-0.355085 -0.4191,-0.08012 -0.625,-0.0073 -0.625,0.220855 0,0.524265 -0.3534,0.403405 -0.62821,-0.214845 -0.23631,-0.531613 -1.24324,-0.93686 -2.55929,-1.03001 -0.30937,-0.0219 -0.5625,-0.116608 -0.5625,-0.210465 0,-0.332015 -0.98792,-0.478405 -1.47377,-0.218385 -0.4005,0.214342 -0.52085,0.174817 -0.6434,-0.211298 -0.0829,-0.261227 -0.43893,-0.547287 -0.79116,-0.635692 -0.52065,-0.130675 -0.61309,-0.269585 -0.49431,-0.742827 0.13353,-0.532052 0.0155,-0.618742 -1.37307,-1.008351 -0.83554,-0.23444 -1.56954,-0.375872 -1.63112,-0.314292 -0.27548,0.275476 -1.30647,4.061997 -1.14671,4.21154 0.41661,0.389982 4.192,1.411307 4.41604,1.194637 0.37049,-0.358282 0.8875,-0.270022 0.8875,0.151508 0,0.209652 0.29398,0.492955 0.65328,0.629562 0.51956,0.197535 0.62899,0.375363 0.53466,0.868813 -0.0652,0.341238 -0.0309,0.620438 0.0763,0.620438 0.10719,0 0.37128,0.0677 0.58686,0.15041 0.27105,0.10401 0.47304,-0.0628 0.65474,-0.54071 0.19971,-0.525268 0.33253,-0.621358 0.55347,-0.400411 0.38398,0.383981 1.50458,0.371291 1.92472,-0.0218 0.27346,-0.255847 0.31045,-0.214435 0.20405,0.228438 -0.0957,0.398133 0.006,0.576443 0.38437,0.675443 0.67232,0.17581 0.83696,0.0537 1.04498,-0.775121 0.40642,-1.61932 1.103,-1.727967 1.04807,-0.16347 -0.0339,0.965521 0.0621,1.230621 0.59091,1.631911 0.34726,0.26352 1.048,0.51652 1.5572,0.56221 0.5092,0.0457 1.11116,0.2369 1.3377,0.4249 0.22653,0.18801 0.90355,0.34438 1.5045,0.34751 0.60094,0.003 1.09298,0.0955 1.09342,0.20525 5e-4,0.10976 0.36642,0.36745 0.81329,0.57263 0.76098,0.34941 0.62228,0.36603 -2.1875,0.26213 -2.16474,-0.08 -3.69022,-0.29447 -5.47907,-0.77012 -1.96966,-0.52374 -2.52106,-0.59292 -2.68343,-0.3367 -0.35685,0.56311 -0.0891,0.7946 1.43961,1.24481 4.18108,1.2313 9.36686,1.48957 11.84789,0.59005 l 0,1e-5 z m -23.83468,-7.777297 c 0.0883,-0.230202 -0.10799,-0.665425 -0.4793,-1.0625 -0.73463,-0.78561 -1.43602,-2.096576 -1.43602,-2.684087 0,-0.666048 0.72919,-1.707769 1.58176,-2.259706 1.43035,-0.925985 3.08597,-1.229816 6.60574,-1.21225 3.25496,0.01624 3.3125,0.0069 3.3125,-0.535533 0,-0.520003 -0.14155,-0.561974 -2.4375,-0.722708 -8.37312,-0.586184 -12.76907,3.597014 -8.59519,8.179209 0.70258,0.771303 1.22503,0.87867 1.44801,0.297575 z m 17.26583,-2.499744 0.5331,-1.639669 -0.54462,-0.209211 c -0.66015,-0.253588 -0.77527,-0.149173 -1.15881,1.051049 -0.39026,1.22122 -1.14924,1.32403 -0.92279,0.125 0.33703,-1.784563 0.33078,-1.813102 -0.39427,-1.80313 -0.60624,0.0083 -0.67506,-0.07424 -0.625,-0.75 0.0488,-0.658327 -0.0269,-0.75937 -0.56876,-0.75937 -0.45781,0 -0.64637,0.15047 -0.70488,0.5625 -0.0572,0.402743 -0.24827,0.5625 -0.67275,0.5625 -0.76545,0 -0.93554,-0.301281 -0.62751,-1.111482 0.22068,-0.580416 0.1751,-0.681328 -0.40788,-0.902974 -0.36098,-0.137243 -0.68347,-0.21826 -0.71665,-0.180038 -0.0332,0.03822 -0.34976,1.022385 -0.70353,2.18703 -0.66362,2.184734 -0.61711,2.494534 0.37584,2.503636 0.26221,0.0024 0.47894,-0.275287 0.58236,-0.746172 0.1624,-0.739397 0.46718,-0.890805 1.21528,-0.60373 0.29949,0.114923 0.32847,0.284894 0.13525,0.793112 -0.13527,0.355764 -0.18862,0.796192 -0.11858,0.978731 0.20791,0.54179 1.13696,0.387122 1.38526,-0.230613 0.19753,-0.491412 0.2281,-0.501798 0.24195,-0.08218 0.0219,0.662785 0.73656,1.393905 1.36709,1.398513 0.28806,0.002 0.6925,0.112882 0.89875,0.246172 0.69595,0.449753 0.8964,0.255115 1.43115,-1.389669 l 0,0 z"
       id="path4173"
       inkscape:connector-curvature="0"
       inkscape:transform-center-x="26.5"
       inkscape:transform-center-y="21.25" />
    <path
       style="fill:#f2f2f2;fill-opacity:1;stroke:#d9d9d9;stroke-width:0.17677668999999999;stroke-opacity:1"
       d="m 107.23071,155.37127 -27.54929,-13.90041 0.590843,-0.53698 c 2.536061,-2.30488 33.327607,-28.27772 33.482027,-28.24227 0.14073,0.0323 43.61529,14.80365 45.44509,15.44088 0.11053,0.0385 -5.31547,4.56453 -12.05779,10.05787 l -12.25876,9.98788 -0.0514,10.54672 -0.0514,10.54672 -27.54929,-13.90041 z m 28.47742,-9.60356 c 7.94829,-6.82521 14.48471,-12.43606 14.52536,-12.46855 0.16057,-0.12832 -0.42032,-0.95233 -0.63782,-0.90477 -0.24593,0.0538 -29.39975,25.05276 -29.39975,25.20986 0,0.24253 0.62353,0.74072 0.82859,0.66203 0.12771,-0.049 6.73533,-5.67336 14.68362,-12.49857 l 0,0 z m -10.45221,-5.07262 c 7.9606,-6.83809 14.55227,-12.54467 14.64815,-12.68127 0.12567,-0.17905 0.0692,-0.35347 -0.20224,-0.62493 l -0.37656,-0.37656 -14.46206,12.43911 c -7.95414,6.84151 -14.5757,12.52529 -14.71459,12.63062 -0.21642,0.16413 -0.20776,0.25981 0.0606,0.66944 0.17224,0.26286 0.37159,0.45511 0.44299,0.42721 0.0714,-0.0279 6.64306,-5.64552 14.60367,-12.48362 l 0,0 z m -10.6293,-5.22725 c 8.0217,-6.89349 14.58491,-12.58884 14.58491,-12.65633 0,-0.27961 -0.69594,-0.73568 -0.91694,-0.60089 -0.12766,0.0779 -6.71539,5.70623 -14.63941,12.50748 -7.92401,6.80126 -14.466223,12.41649 -14.538242,12.47829 -0.198124,0.17002 0.393785,0.92075 0.677271,0.85899 0.136123,-0.0297 6.810711,-5.69404 14.832411,-12.58754 l 0,0 z m -9.91319,-4.78524 c 8.02924,-6.90024 14.59861,-12.63537 14.59861,-12.74472 0,-0.10935 -0.15027,-0.33481 -0.33393,-0.50101 -0.32088,-0.2904 -0.90577,0.18904 -14.98182,12.28073 -8.056346,6.92062 -14.678566,12.61026 -14.716043,12.64365 -0.120053,0.10698 0.526744,0.97973 0.683599,0.92242 0.08304,-0.0303 6.720356,-5.70083 14.749584,-12.60107 l 0,0 z"
       id="path4001"
       inkscape:connector-curvature="0" />
    <path
       style="fill:#038e00;fill-opacity:1;stroke:#00aa00;stroke-width:0.23740157000000001;stroke-linecap:butt;stroke-linejoin:miter;stroke-opacity:1;stroke-miterlimit:4;stroke-dasharray:none"
       d="m 80.772258,139.42464 0,-9.67377 1.002057,-1.00507 0,9.67377 z"
       id="path4005"
       inkscape:connector-curvature="0" />
    <path
       style="fill:#00e600;stroke:#00ba00;stroke-width:1px;stroke-linecap:butt;stroke-linejoin:miter;stroke-opacity:1;fill-opacity:1"
       d="m 52.237513,126.31747 1.944544,0.7071 0,7.42462 -2.032932,-1.23743 z"
       id="path4007"
       inkscape:connector-curvature="0" />
    <path
       sodipodi:type="arc"
       style="fill:#4f4f4f;fill-opacity:1;stroke:#e2e2e2;stroke-opacity:1"
       id="path4009"
       sodipodi:cx="246.125"
       sodipodi:cy="125.48718"
       sodipodi:rx="4.375"
       sodipodi:ry="4.875"
       d="m 250.5,125.48718 a 4.375,4.875 0 1 1 -8.75,0 4.375,4.875 0 1 1 8.75,0 z"
       transform="matrix(-0.55578836,1.2172037,-0.78677701,-0.30609383,480.30145,-136.37635)" />
    <path
       sodipodi:type="arc"
       style="fill:#3e3e3e;fill-opacity:1;stroke:#e0e0e0;stroke-opacity:1"
       id="path4011"
       sodipodi:cx="159"
       sodipodi:cy="182.86218"
       sodipodi:rx="4.5"
       sodipodi:ry="4.5"
       d="m 163.5,182.86218 a 4.5,4.5 0 1 1 -9,0 4.5,4.5 0 1 1 9,0 z"
       transform="matrix(1.0053998,0.46226448,-0.32277563,0.70201926,58.049528,-23.951823)" />
    <path
       style="fill:none;stroke:#ff0000;stroke-width:1.64409449;stroke-opacity:1;stroke-miterlimit:4;stroke-dasharray:none"
       d="m 159.6779,90.5724 c 7.99732,2.702772 12.38379,7.387716 10.76809,10.77761 -1.61573,3.38989 -8.24518,4.08238 -16.24249,1.3796 m -10.82912,-6.076761 c -2.09105,-1.996347 -2.69713,-3.395499 -1.88924,-5.090443 0.80784,-1.694948 3.15999,-2.681678 6.30986,-2.906821 1.57493,-0.112574 3.34929,-0.03475 5.22975,0.240142"
       id="path4021"
       inkscape:connector-curvature="0"
       sodipodi:nodetypes="csccssc" />
    <text
       xml:space="preserve"
       style="font-size:6px;font-style:normal;font-weight:normal;line-height:125%;letter-spacing:0px;word-spacing:0px;fill:#000000;fill-opacity:1;stroke:none;font-family:Sans;stroke-width:0.70866142;stroke-miterlimit:4;stroke-dasharray:none"
       x="173.10016"
       y="43.815437"
       id="text4024"
       sodipodi:linespacing="125%"
       transform="matrix(0.95515474,0.29610711,-0.29610711,0.95515474,0,0)"><tspan
         sodipodi:role="line"
         id="tspan4026"
         x="173.10016"
         y="43.815437"
         style="font-size:6px;font-style:normal;font-variant:normal;font-weight:bold;font-stretch:normal;fill:#ff0000;fill-opacity:1;font-family:Code Datamatrix;-inkscape-font-specification:Code Datamatrix Bold;stroke-width:0.70866142;stroke-miterlimit:4;stroke-dasharray:none">Hu</tspan></text>
    <text
       xml:space="preserve"
       style="font-size:40px;font-style:normal;font-weight:normal;line-height:125%;letter-spacing:0px;word-spacing:0px;fill:#ff0000;fill-opacity:1;stroke:none;font-family:Sans"
       x="166.41748"
       y="49.158882"
       id="text4028"
       sodipodi:linespacing="125%"
       transform="matrix(0.95408278,0.29954306,-0.29954306,0.95408278,0,0)"><tspan
         sodipodi:role="line"
         x="166.41748"
         y="49.158882"
         style="font-size:6px;font-style:normal;font-variant:normal;font-weight:bold;font-stretch:normal;fill:#ff0000;fill-opacity:1;font-family:Code Datamatrix;-inkscape-font-specification:Code Datamatrix Bold"
         id="tspan4032">Express</tspan></text>
    <path
       style="fill:none;stroke:#000000;stroke-width:1px;stroke-linecap:butt;stroke-linejoin:miter;stroke-opacity:1"
       d="M 175.00892,164.23607 254.38166,96.884148 128.87021,53.573857 47.508737,111.82178"
       id="path4036"
       inkscape:connector-curvature="0"
       sodipodi:nodetypes="cccc" />
    <path
       style="fill:#e7e7e7;fill-opacity:1;stroke:none"
       d="m 167.71292,160.44568 c -3.94191,-1.61953 -7.34384,-3.02415 -7.55984,-3.12138 -0.3628,-0.1633 0.44031,-1.01226 10.53549,-11.13693 12.75511,-12.79237 17.27077,-17.70009 21.82469,-23.71956 8.07663,-10.67586 11.78419,-20.50679 10.73356,-28.460971 -0.77742,-5.885752 -3.21245,-10.539388 -8.00785,-15.303976 -1.24766,-1.239647 -2.18988,-2.253903 -2.09383,-2.253903 0.26526,0 59.67637,20.514324 59.80877,20.651635 0.10296,0.106779 -77.63919,66.193945 -77.94771,66.261905 -0.0694,0.0153 -3.35137,-1.29728 -7.29328,-2.91682 l 0,0 z"
       id="path4040"
       inkscape:connector-curvature="0" />
    <path
       style="fill:#f1f1f1;fill-opacity:1;stroke:none"
       d="m 55.035887,114.36556 c -3.372723,-1.38892 -6.167638,-2.56073 -6.210923,-2.60401 -0.09765,-0.0977 79.776806,-57.298806 80.124376,-57.380137 0.23372,-0.05469 42.67807,14.498826 42.58202,14.600724 -0.0239,0.0254 -1.38835,-0.07076 -3.03201,-0.213699 -18.8981,-1.64343 -36.1179,1.355214 -51.16013,8.908987 -8.77157,4.404834 -14.45413,8.325972 -29.610096,20.431881 C 75.213493,108.10623 69.755099,112.02423 63.04652,115.82629 l -1.878411,1.06459 -6.132222,-2.52532 0,0 z"
       id="path4042"
       inkscape:connector-curvature="0" />
    <path
       style="fill:#cacaca;fill-opacity:1;stroke:none"
       d="m 176.91776,164.1875 -0.61394,-0.26725 0.56881,-0.46955 c 5.24928,-4.33324 78.49859,-66.626942 78.46988,-66.733436 -0.0545,-0.20192 -126.36939,-43.791262 -126.6309,-43.698378 -0.11357,0.04034 -18.43689,13.124457 -40.718498,29.075823 -22.281603,15.951366 -40.644171,28.999661 -40.805705,28.996221 -0.161535,-0.003 -0.461552,-0.10288 -0.666705,-0.22097 -0.340948,-0.19626 3.13542,-2.70637 40.44877,-29.206087 22.451978,-15.945258 40.995768,-29.055888 41.208418,-29.134732 0.29294,-0.108609 15.63968,5.066669 63.31915,21.352689 34.61288,11.822824 63.66963,21.755827 64.57057,22.073337 l 1.63809,0.577294 -39.86503,33.892419 c -21.92577,18.64083 -39.96492,33.92334 -40.087,33.96114 -0.12209,0.0378 -0.49825,-0.0515 -0.83591,-0.19852 l 0,0 z"
       id="path4044"
       inkscape:connector-curvature="0" />
    <path
       style="fill:none;stroke:#009100;stroke-width:1px;stroke-linecap:butt;stroke-linejoin:miter;stroke-opacity:1"
       d="m 56.75,125.73719 0,11.875"
       id="path4048"
       inkscape:connector-curvature="0" />
    <path
       style="fill:#028200;fill-opacity:1;stroke:none;stroke-width:0.12500000000000000;stroke-opacity:1"
       d="m 62.983433,140.47902 -5.65625,-2.82732 0,-5.5913 0,-5.5913 0.28125,0.10763 c 2.805932,1.07384 10.931122,4.30173 11.001192,4.37045 0.05222,0.0512 0.08034,2.85297 0.0625,6.22614 l -0.03244,6.13302 -5.65625,-2.82732 z"
       id="path4050"
       inkscape:connector-curvature="0" />
    <path
       style="fill:#989898;fill-opacity:1;stroke:#b9b9b9;stroke-width:0.405;stroke-linecap:butt;stroke-linejoin:miter;stroke-miterlimit:4;stroke-opacity:1;stroke-dasharray:none"
       d="m 81.011965,139.66962 3.288975,1.79103 1.323518,-0.78349 -3.703035,-1.96168 z"
       id="path4052"
       inkscape:connector-curvature="0"
       sodipodi:nodetypes="ccccc" />
    <path
       style="fill:#d4d4d4;fill-opacity:1;stroke:none;stroke-width:0.04196706000000000;stroke-miterlimit:4;stroke-opacity:1;stroke-dasharray:none"
       d="m 79.122453,132.97052 0.0095,-7.04173 6.388751,-4.41941 c 5.308848,-3.6724 20.242126,-14.05588 25.456156,-17.70031 l 1.37001,-0.95759 -0.0129,4.55598 -0.0129,4.55597 -2.32939,1.95352 c -1.28116,1.07443 -8.07646,6.82188 -15.100666,12.77211 -7.024204,5.95023 -12.811431,10.81861 -12.860504,10.81861 -0.04907,0 -0.08922,-2.08444 -0.08922,-4.63207 l 0,-4.63208 -0.707107,0.69048 -0.707107,0.69047 0,4.63385 0,4.63385 -0.707106,0.56004 -0.707107,0.56004 0.0095,-7.04173 0,0 z"
       id="path4054"
       inkscape:connector-curvature="0" />
    <path
       style="fill:none;stroke:#909090;stroke-width:1px;stroke-linecap:butt;stroke-linejoin:miter;stroke-opacity:1"
       d="m 152.50261,177.63725 1.83272,3.42018 3.05224,2.02514 4.05929,0.71965 3.71619,-1.18712 0,-11.98214"
       id="path4068"
       inkscape:connector-curvature="0"
       sodipodi:nodetypes="cccccc" />
    <path
       style="fill:none;stroke:#d6d6d6;stroke-width:1px;stroke-linecap:butt;stroke-linejoin:miter;stroke-opacity:1"
       d="m 165.61434,170.68648 -12.99309,-5.17202 0,12.30353"
       id="path4068-6"
       inkscape:connector-curvature="0"
       sodipodi:nodetypes="ccc" />
    <path
       style="fill:#101010;fill-opacity:0.13004485;stroke:none"
       d="m 157.7317,169.37513 2.69285,1.05378 -1.47345,1.10782 z"
       id="path4153"
       inkscape:connector-curvature="0" />
    <path
       style="fill:#eaeaea;fill-opacity:1;stroke:none"
       d="m 70.853683,120.91024 c -4.520313,-1.86387 -8.218374,-3.42106 -8.217914,-3.46042 4.6e-4,-0.0394 0.408273,-0.2924 0.90625,-0.56232 4.214323,-2.28429 11.003465,-6.91412 17.030414,-11.61384 1.44375,-1.12581 2.655792,-1.99983 2.693426,-1.94226 0.07493,0.11461 9.312096,3.66167 16.542199,6.35218 0.182935,0.0681 -2.102145,1.71389 -10.218661,7.35993 -5.749859,3.99974 -10.46839,7.2685 -10.485625,7.26392 -0.01724,-0.005 -3.729777,-1.53332 -8.250089,-3.39719 l 0,0 z"
       id="path4223"
       inkscape:connector-curvature="0" />
    <path
       style="fill:#eaeaea;fill-opacity:1;stroke:none"
       d="m 147.73116,152.3335 c -5.82521,-2.38163 -10.57833,-4.36657 -10.5625,-4.41097 0.0158,-0.0444 4.65992,-3.85991 10.32022,-8.4789 9.31126,-7.59831 10.3113,-8.3807 10.5,-8.21477 0.58369,0.51329 2.53526,1.30224 12.01817,4.85852 4.53892,1.70219 6.39813,2.3456 6.625,2.29268 0.20692,-0.0483 -2.86108,3.08785 -8.92052,9.11857 -5.07974,5.05567 -9.27037,9.18605 -9.3125,9.17862 -0.0421,-0.007 -4.84267,-1.96211 -10.66787,-4.34375 l 0,0 z"
       id="path4225"
       inkscape:connector-curvature="0" />
    <path
       style="fill:none;stroke:#ababab;stroke-width:1px;stroke-linecap:butt;stroke-linejoin:miter;stroke-opacity:1"
       d="m 72,110.86218 17.146762,7.02513 m 56.258028,22.40296 21.34521,8.57192"
       id="path4056"
       inkscape:connector-curvature="0"
       sodipodi:nodetypes="cccc" />
    <path
       style="fill:none;stroke:#ababab;stroke-width:1px;stroke-linecap:butt;stroke-linejoin:miter;stroke-opacity:1"
       d="m 77.227252,107.01621 17.585248,7.09597 m 56.1875,21.6875 20.875,8.18751"
       id="path4058"
       inkscape:connector-curvature="0"
       sodipodi:nodetypes="cccc" />
    <path
       style="fill:none;stroke:#ababab;stroke-width:1px;stroke-linecap:butt;stroke-linejoin:miter;stroke-opacity:1"
       d="m 81.75,103.36218 18.375,6.9375 m 56.0625,21.0625 20.5625,7.75001"
       id="path4060"
       inkscape:connector-curvature="0"
       sodipodi:nodetypes="cccc" />
    <path
       style="fill:none;stroke:#ababab;stroke-width:1px;stroke-linecap:butt;stroke-linejoin:miter;stroke-opacity:1"
       d="m 74.75,108.86218 17.286927,7.1211 m 56.140613,22.06456 21.08763,8.53532"
       id="path4062"
       inkscape:connector-curvature="0"
       sodipodi:nodetypes="cccc" />
    <path
       style="fill:none;stroke:#ababab;stroke-width:1px;stroke-linecap:butt;stroke-linejoin:miter;stroke-opacity:1"
       d="m 79.875,105.23718 17.552092,6.8711 m 56.052228,21.65295 20.64568,7.97596"
       id="path4064"
       inkscape:connector-curvature="0"
       sodipodi:nodetypes="cccc" />
    <path
       style="fill:#9a9a9a;fill-opacity:1;stroke:none"
       d="m 219.25697,167.63017 40.30363,-42.82168 0.0464,-6.05337 0.22318,-4.81592 c 5.10308,1.884 9.26273,4.3512 14.58662,6.77648 l -0.41826,0.45294 c -0.55668,0.60283 -81.56545,87.50785 -81.97478,87.94133 -0.27926,0.29575 -1.02496,0.39868 -6.03088,0.83248 -3.14172,0.27224 -6.01088,0.49824 -6.37591,0.50221 -0.65567,0.007 -0.17556,-0.51143 39.63993,-42.81447 l 0,0 z"
       id="path4309"
       inkscape:connector-curvature="0"
       sodipodi:nodetypes="cccccscscccc" />
  </g>
</svg>
